<svg height="2062" width="720" xmlns="http://www.w3.org/2000/svg">
<rect height="2062" fill="#555" width="720"></rect>
<text fill="#7f7" font-family="Courier New" font-size="12" xml:space="preserve">
<tspan x="10" y="26">└─┬ flightplan@0.6.15 </tspan>
<tspan x="10" y="42">  ├── byline@4.2.2 </tspan>
<tspan x="10" y="58">  ├─┬ chalk@1.1.3 </tspan>
<tspan x="10" y="74">  │ ├── ansi-styles@2.2.1 </tspan>
<tspan x="10" y="90">  │ ├── escape-string-regexp@1.0.5 </tspan>
<tspan x="10" y="106">  │ ├─┬ has-ansi@2.0.0 </tspan>
<tspan x="10" y="122">  │ │ └── ansi-regex@2.1.1 </tspan>
<tspan x="10" y="138">  │ ├── strip-ansi@3.0.1 </tspan>
<tspan x="10" y="154">  │ └── supports-color@2.0.0 </tspan>
<tspan x="10" y="170">  ├── fibers@1.0.15 </tspan>
<tspan x="10" y="186">  ├── interpret@1.0.2 </tspan>
<tspan x="10" y="202">  ├─┬ liftoff@2.3.0 </tspan>
<tspan x="10" y="218">  │ ├── extend@3.0.0 </tspan>
<tspan x="10" y="234">  │ ├─┬ findup-sync@0.4.3 </tspan>
<tspan x="10" y="250">  │ │ ├─┬ detect-file@0.1.0 </tspan>
<tspan x="10" y="266">  │ │ │ └── fs-exists-sync@0.1.0 </tspan>
<tspan x="10" y="282">  │ │ ├─┬ is-glob@2.0.1 </tspan>
<tspan x="10" y="298">  │ │ │ └── is-extglob@1.0.0 </tspan>
<tspan x="10" y="314">  │ │ ├─┬ micromatch@2.3.11 </tspan>
<tspan x="10" y="330">  │ │ │ ├─┬ arr-diff@2.0.0 </tspan>
<tspan x="10" y="346">  │ │ │ │ └── arr-flatten@1.0.1 </tspan>
<tspan x="10" y="362">  │ │ │ ├── array-unique@0.2.1 </tspan>
<tspan x="10" y="378">  │ │ │ ├─┬ braces@1.8.5 </tspan>
<tspan x="10" y="394">  │ │ │ │ ├─┬ expand-range@1.8.2 </tspan>
<tspan x="10" y="410">  │ │ │ │ │ └─┬ fill-range@2.2.3 </tspan>
<tspan x="10" y="426">  │ │ │ │ │   ├── is-number@2.1.0 </tspan>
<tspan x="10" y="442">  │ │ │ │ │   ├─┬ isobject@2.1.0 </tspan>
<tspan x="10" y="458">  │ │ │ │ │   │ └── isarray@1.0.0 </tspan>
<tspan x="10" y="474">  │ │ │ │ │   ├── randomatic@1.1.6 </tspan>
<tspan x="10" y="490">  │ │ │ │ │   └── repeat-string@1.6.1 </tspan>
<tspan x="10" y="506">  │ │ │ │ ├── preserve@0.2.0 </tspan>
<tspan x="10" y="522">  │ │ │ │ └── repeat-element@1.1.2 </tspan>
<tspan x="10" y="538">  │ │ │ ├─┬ expand-brackets@0.1.5 </tspan>
<tspan x="10" y="554">  │ │ │ │ └── is-posix-bracket@0.1.1 </tspan>
<tspan x="10" y="570">  │ │ │ ├── extglob@0.3.2 </tspan>
<tspan x="10" y="586">  │ │ │ ├── filename-regex@2.0.0 </tspan>
<tspan x="10" y="602">  │ │ │ ├─┬ kind-of@3.1.0 </tspan>
<tspan x="10" y="618">  │ │ │ │ └── is-buffer@1.1.5 </tspan>
<tspan x="10" y="634">  │ │ │ ├─┬ normalize-path@2.1.1 </tspan>
<tspan x="10" y="650">  │ │ │ │ └── remove-trailing-separator@1.0.1 </tspan>
<tspan x="10" y="666">  │ │ │ ├─┬ object.omit@2.0.1 </tspan>
<tspan x="10" y="682">  │ │ │ │ ├─┬ for-own@0.1.5 </tspan>
<tspan x="10" y="698">  │ │ │ │ │ └── for-in@1.0.2 </tspan>
<tspan x="10" y="714">  │ │ │ │ └── is-extendable@0.1.1 </tspan>
<tspan x="10" y="730">  │ │ │ ├─┬ parse-glob@3.0.4 </tspan>
<tspan x="10" y="746">  │ │ │ │ ├─┬ glob-base@0.3.0 </tspan>
<tspan x="10" y="762">  │ │ │ │ │ └── glob-parent@2.0.0 </tspan>
<tspan x="10" y="778">  │ │ │ │ └── is-dotfile@1.0.2 </tspan>
<tspan x="10" y="794">  │ │ │ └─┬ regex-cache@0.4.3 </tspan>
<tspan x="10" y="810">  │ │ │   ├── is-equal-shallow@0.1.3 </tspan>
<tspan x="10" y="826">  │ │ │   └── is-primitive@2.0.0 </tspan>
<tspan x="10" y="842">  │ │ └─┬ resolve-dir@0.1.1 </tspan>
<tspan x="10" y="858">  │ │   └─┬ global-modules@0.2.3 </tspan>
<tspan x="10" y="874">  │ │     ├─┬ global-prefix@0.1.5 </tspan>
<tspan x="10" y="890">  │ │     │ ├─┬ homedir-polyfill@1.0.1 </tspan>
<tspan x="10" y="906">  │ │     │ │ └── parse-passwd@1.0.0 </tspan>
<tspan x="10" y="922">  │ │     │ ├── ini@1.3.4 </tspan>
<tspan x="10" y="938">  │ │     │ └─┬ which@1.2.14 </tspan>
<tspan x="10" y="954">  │ │     │   └── isexe@2.0.0 </tspan>
<tspan x="10" y="970">  │ │     └── is-windows@0.2.0 </tspan>
<tspan x="10" y="986">  │ ├─┬ fined@1.0.2 </tspan>
<tspan x="10" y="1002">  │ │ ├─┬ expand-tilde@1.2.2 </tspan>
<tspan x="10" y="1018">  │ │ │ └── os-homedir@1.0.2 </tspan>
<tspan x="10" y="1034">  │ │ ├── lodash.assignwith@4.2.0 </tspan>
<tspan x="10" y="1050">  │ │ ├── lodash.isempty@4.4.0 </tspan>
<tspan x="10" y="1066">  │ │ ├── lodash.pick@4.4.0 </tspan>
<tspan x="10" y="1082">  │ │ └─┬ parse-filepath@1.0.1 </tspan>
<tspan x="10" y="1098">  │ │   ├─┬ is-absolute@0.2.6 </tspan>
<tspan x="10" y="1114">  │ │   │ └─┬ is-relative@0.2.1 </tspan>
<tspan x="10" y="1130">  │ │   │   └─┬ is-unc-path@0.1.2 </tspan>
<tspan x="10" y="1146">  │ │   │     └── unc-path-regex@0.1.2 </tspan>
<tspan x="10" y="1162">  │ │   ├── map-cache@0.2.2 </tspan>
<tspan x="10" y="1178">  │ │   └─┬ path-root@0.1.1 </tspan>
<tspan x="10" y="1194">  │ │     └── path-root-regex@0.1.2 </tspan>
<tspan x="10" y="1210">  │ ├── flagged-respawn@0.3.2 </tspan>
<tspan x="10" y="1226">  │ ├── lodash.isplainobject@4.0.6 </tspan>
<tspan x="10" y="1242">  │ ├── lodash.isstring@4.0.1 </tspan>
<tspan x="10" y="1258">  │ ├── lodash.mapvalues@4.6.0 </tspan>
<tspan x="10" y="1274">  │ ├── rechoir@0.6.2 </tspan>
<tspan x="10" y="1290">  │ └─┬ resolve@1.3.2 </tspan>
<tspan x="10" y="1306">  │   └── path-parse@1.0.5 </tspan>
<tspan x="10" y="1322">  ├─┬ nopt@3.0.6 </tspan>
<tspan x="10" y="1338">  │ └── abbrev@1.1.0 </tspan>
<tspan x="10" y="1354">  ├── pretty-hrtime@1.0.3 </tspan>
<tspan x="10" y="1370">  ├─┬ prompt@0.2.14 </tspan>
<tspan x="10" y="1386">  │ ├── pkginfo@0.4.0 </tspan>
<tspan x="10" y="1402">  │ ├─┬ read@1.0.7 </tspan>
<tspan x="10" y="1418">  │ │ └── mute-stream@0.0.7 </tspan>
<tspan x="10" y="1434">  │ ├── revalidator@0.1.8 </tspan>
<tspan x="10" y="1450">  │ ├─┬ utile@0.2.1 </tspan>
<tspan x="10" y="1466">  │ │ ├── async@0.2.10 </tspan>
<tspan x="10" y="1482">  │ │ ├── deep-equal@1.0.1 </tspan>
<tspan x="10" y="1498">  │ │ ├── i@0.3.5 </tspan>
<tspan x="10" y="1514">  │ │ ├─┬ mkdirp@0.5.1 </tspan>
<tspan x="10" y="1530">  │ │ │ └── minimist@0.0.8 </tspan>
<tspan x="10" y="1546">  │ │ ├── ncp@0.4.2 </tspan>
<tspan x="10" y="1562">  │ │ └─┬ rimraf@2.6.1 </tspan>
<tspan x="10" y="1578">  │ │   └─┬ glob@7.1.1 </tspan>
<tspan x="10" y="1594">  │ │     ├── fs.realpath@1.0.0 </tspan>
<tspan x="10" y="1610">  │ │     ├─┬ inflight@1.0.6 </tspan>
<tspan x="10" y="1626">  │ │     │ └── wrappy@1.0.2 </tspan>
<tspan x="10" y="1642">  │ │     ├─┬ minimatch@3.0.3 </tspan>
<tspan x="10" y="1658">  │ │     │ └─┬ brace-expansion@1.1.6 </tspan>
<tspan x="10" y="1674">  │ │     │   ├── balanced-match@0.4.2 </tspan>
<tspan x="10" y="1690">  │ │     │   └── concat-map@0.0.1 </tspan>
<tspan x="10" y="1706">  │ │     ├── once@1.4.0 </tspan>
<tspan x="10" y="1722">  │ │     └── path-is-absolute@1.0.1 </tspan>
<tspan x="10" y="1738">  │ └─┬ winston@0.8.3 </tspan>
<tspan x="10" y="1754">  │   ├── colors@0.6.2 </tspan>
<tspan x="10" y="1770">  │   ├── cycle@1.0.3 </tspan>
<tspan x="10" y="1786">  │   ├── eyes@0.1.8 </tspan>
<tspan x="10" y="1802">  │   ├── isstream@0.1.2 </tspan>
<tspan x="10" y="1818">  │   ├── pkginfo@0.3.1 </tspan>
<tspan x="10" y="1834">  │   └── stack-trace@0.0.9 </tspan>
<tspan x="10" y="1850">  ├── semver@5.3.0 </tspan>
<tspan x="10" y="1866">  ├─┬ ssh2@0.4.15 </tspan>
<tspan x="10" y="1882">  │ ├─┬ readable-stream@1.0.34 </tspan>
<tspan x="10" y="1898">  │ │ ├── core-util-is@1.0.2 </tspan>
<tspan x="10" y="1914">  │ │ ├── inherits@2.0.3 </tspan>
<tspan x="10" y="1930">  │ │ ├── isarray@0.0.1 </tspan>
<tspan x="10" y="1946">  │ │ └── string_decoder@0.10.31 </tspan>
<tspan x="10" y="1962">  │ └─┬ ssh2-streams@0.0.23 </tspan>
<tspan x="10" y="1978">  │   ├── asn1@0.2.3 </tspan>
<tspan x="10" y="1994">  │   └── streamsearch@0.1.2 </tspan>
<tspan x="10" y="2010">  ├── util-extend@1.0.3 </tspan>
<tspan x="10" y="2026">  └─┬ v8flags@2.0.12 </tspan>
<tspan x="10" y="2042">    └── user-home@1.1.1</tspan>
</text>
</svg>
